<?xml version="1.0" encoding="UTF-8"?>
<svg id="Layer_1" data-name="Layer 1" xmlns="http://www.w3.org/2000/svg" version="1.1" viewBox="0 0 2800.3 135.9">
  <defs>
    <style>
      .cls-1 {
        fill-rule: evenodd;
      }

      .cls-1, .cls-2 {
        fill: #232526;
        stroke-width: 0px;
      }
    </style>
  </defs>
  <path class="cls-1" d="M387.5,133.7c68.8,0,124.6-15.7,124.6-66.5S456.3.7,387.5.7s-124.6,12.7-124.6,66.5,55.8,66.5,124.6,66.5ZM387.5,85.3c25.8,0,40.1-4.4,40.1-18.7s-15.4-18.7-40.1-18.7-40.1,3.6-40.1,18.7,17.9,18.7,40.1,18.7Z"/>
  <path class="cls-2" d="M12.5,130.7V3.7h241.9v126.9h-88.9V50.9h-64.1v79.8H12.5Z"/>
  <path class="cls-2" d="M609.5,3.7h-88.9v126.9h88.9v-39.9h64.1v39.9h88.9V3.7h-88.9v39.9h-64.1V3.7Z"/>
  <path class="cls-2" d="M774.6,3.7v126.9h241.9v-36.3h-153v-10.9h136.7v-32.6h-136.7v-10.9h153V3.7h-241.9Z"/>
  <path class="cls-2" d="M1294.5,3.7h241.9v36.3h-153v10.9h136.7v32.6h-136.7v10.9h144.9l6.9,36.3h-240.7V3.7Z"/>
  <path class="cls-2" d="M1790.4,130.7h-88.9V50.9h-64.4c0,59.4-24.5,84.6-90.3,80.4l-12.3-65c24.9-2.3,30.7-15.8,31.6-48.3V3.7h224.4v126.9Z"/>
  <path class="cls-1" d="M1891.4,3.7h-88.9v126.9h102.5c94,0,141.3,0,141.3-47.7s-36.8-50.8-141.3-47.7h-13.6V3.7ZM1891.4,70.7v22.8h18c31.9,0,47.9-.8,47.9-11.2s-16.6-11.6-47.9-11.6h-18Z"/>
  <path class="cls-2" d="M2561.9,3.7h88.9v39.9h27.6l28.6-39.9h96.8l-48.2,59.2,54.2,67.7h-101.6l-29-40.5,1.4-.6h-29.8v41.1h-88.9V3.7Z"/>
  <path class="cls-2" d="M2396.8,3.7h-88.9v126.9h92.8s60.2-55.3,60.2-55.3v55.3h88.9V3.7h-92.1s-60.9,55.9-60.9,55.9V3.7Z"/>
  <path class="cls-2" d="M2206.9,3.7h88.9v126.9h-88.9v-39.9h-64.1v39.9h-88.9V3.7h88.9v39.9h64.1V3.7Z"/>
  <path class="cls-1" d="M1043.7,83.5c11.5-24,15.7-37.6,15.7-79.8h223v126.9h-253.8v-47.1h15.1ZM1122.2,83.5c5-11.7,6.3-19.4,7.1-32.6h64.1v32.6h-71.2Z"/>
</svg>