<?xml version="1.0" encoding="UTF-8"?>
<svg id="Layer_1" data-name="Layer 1" xmlns="http://www.w3.org/2000/svg" viewBox="0 0 1226.374 69.562">
  <defs>
    <style>
      .cls-1 {
        fill: #2e2f30;
        stroke-width: 0px;
      }
    </style>
  </defs>
  <path class="cls-1" d="M521.265,69.562h37.943v-29.812h-6.776V1.355h-98.471c0,27.102-2.71,38.395-10.841,38.395v29.812h37.943v-10.841h40.202v10.841M512.231,20.327v19.423h-27.102c1.807-3.614,2.71-13.551,2.71-19.423h24.392M168.485,60.077c39.298,0,56.463-9.034,56.463-29.812,0-21.23-17.165-30.264-56.463-30.264-39.75,0-56.463,9.034-56.463,30.264,0,20.778,16.713,29.812,56.463,29.812M168.485,21.23c13.099,0,18.52,2.71,18.52,8.582,0,6.324-5.42,8.582-18.52,8.582-12.648,0-18.068-2.259-18.068-8.582,0-5.872,5.42-8.582,18.068-8.582M1043.434,28.457V1.355h-37.943v57.366h40.653l27.102-27.102v27.102h37.943V1.355h-40.653l-27.102,27.102M381.237,42.46v-4.969h51.946v-14.906h-51.946v-4.969h59.173V1.355h-99.375v57.366h99.375v-16.261h-59.173M932.767,19.875V1.355h-40.653v57.366h40.653v-18.52h28.006v18.52h40.653V1.355h-40.653v18.52h-28.006M662.648,1.355h-99.375v57.366h99.375v-16.261h-58.721v-4.969h51.494v-14.906h-51.494v-4.969h58.721V1.355M819.841,12.196V1.355h-40.653v57.366h73.176c25.747,0,37.04-7.227,37.04-23.489s-11.293-23.037-37.04-23.037h-32.523M819.841,39.75v-8.582h18.068c7.679,0,10.841,1.355,10.841,4.517,0,2.71-3.162,4.065-10.841,4.065h-18.068M40.653,58.721V21.682h28.006v37.04h40.653V1.355H0v57.366h40.653M296.317,40.202v18.52h40.653V1.355h-40.653v18.52h-28.006V1.355h-40.653v57.366h40.653v-18.52h28.006M1180.3,1.355l-13.551,18.52h-10.841V1.355h-40.653v57.366h40.653v-18.52h10.841l13.551,18.52h46.074l-24.392-30.716,21.682-26.65h-43.363M679.361,58.721c23.94,0,34.329-11.293,34.329-37.04h20.778v37.04h40.653V1.355h-93.954v6.324c0,16.261-3.614,21.23-14.454,21.23v29.812h12.648" vector-effect="none"/>
</svg>