<?xml version="1.0" encoding="UTF-8"?>
<svg id="Layer_1" data-name="Layer 1" xmlns="http://www.w3.org/2000/svg" viewBox="0 0 431.373 534.759">
  <defs>
    <style>
      .cls-1 {
        fill: #2e2f30;
        stroke-width: 0px;
      }
    </style>
  </defs>
  <rect class="cls-1" x="320.924" y="66.069" width="5" height="287.545"/>
  <polygon class="cls-1" points="317.723 0 325.386 23.585 350.184 23.585 330.122 38.161 337.785 61.745 317.723 47.169 297.661 61.745 305.324 38.161 285.262 23.585 310.06 23.585 317.723 0"/>
  <g>
    <path class="cls-1" d="M269.609,422.542h-37.495v5.974c0,15.36-2.987,20.054-13.654,20.054v28.161h7.042c18.192-14.437,32.575-32.161,44.106-54.188Z"/>
    <path class="cls-1" d="M220.471,480.571h-2.011v1.445c.674-.479,1.347-.958,2.011-1.445Z"/>
    <path class="cls-1" d="M262.809,443.696c-8.466,12.482-18.171,23.386-29.348,32.958,19.855-.922,28.851-11.115,29.348-32.958Z"/>
    <polygon class="cls-1" points="430.52 403.342 365.238 403.342 365.238 398.648 423.693 398.648 423.693 384.568 365.238 384.568 365.238 379.874 430.52 379.874 430.52 364.514 327.263 364.514 327.263 418.702 430.52 418.702 430.52 403.342"/>
    <polygon class="cls-1" points="214.62 437.903 214.62 422.542 114.777 422.542 114.777 476.731 214.62 476.731 214.62 461.37 153.178 461.37 153.178 456.677 207.793 456.677 207.793 442.596 153.178 442.596 153.178 437.903 214.62 437.903"/>
    <path class="cls-1" d="M323.423,476.731v-54.188h-48.194c-3.443,6.78-7.141,13.172-11.116,19.201h20.909v34.988h38.401Z"/>
    <path class="cls-1" d="M323.423,364.514h-27.097c-3.342,13.165-7.181,25.367-11.591,36.694h.287v17.494h38.401v-54.188Z"/>
    <path class="cls-1" d="M258.568,401.208h20.793c4.5-11.298,8.418-23.493,11.818-36.694h-2.908l-3.249,17.494h-26.454v-17.494h-38.401v54.188h38.401v-17.494Z"/>
    <path class="cls-1" d="M72.536,528.954c13.689-1.75,26.462-3.749,38.401-6.021v-39.801h-38.401v16.214h-34.134v-16.214H0v51.628h38.401v-16.214h34.134v10.408Z"/>
    <path class="cls-1" d="M114.777,522.184c34.935-6.927,62.622-16.284,85.334-28.712,5.065-2.771,9.895-5.7,14.509-8.798v-4.103h-38.401l-25.601,25.601v-25.601h-35.841v41.613Z"/>
    <path class="cls-1" d="M202.511,497.859c-23.37,12.787-51.824,22.369-87.734,29.419v7.482h38.401l25.601-25.601v25.601h35.841v-44.096c-3.887,2.507-7.92,4.903-12.109,7.195Z"/>
    <path class="cls-1" d="M396.385,432.783h-30.721v-10.24h-38.401v54.188h69.122c24.321,0,34.988-6.827,34.988-22.187s-10.667-21.761-34.988-21.761ZM382.732,458.81h-17.067v-8.107h17.067c7.254,0,10.24,1.28,10.24,4.267,0,2.56-2.987,3.84-10.24,3.84Z"/>
    <path class="cls-1" d="M72.536,533.997v.762h38.401v-6.742c-11.961,2.255-24.728,4.242-38.401,5.979Z"/>
    <path class="cls-1" d="M323.423,480.571h-40.961l-12.8,17.494h-12.8v-17.494h-28.141c-3.295,2.618-6.716,5.128-10.26,7.542v46.647h38.401v-17.494h12.8l12.8,17.494h43.521l-23.041-29.014,20.481-25.174Z"/>
    <path class="cls-1" d="M162.992,419.982c37.548,0,54.615-8.534,54.615-28.161,0-20.054-17.067-28.587-54.615-28.587-37.121,0-54.615,8.534-54.615,28.587,0,19.627,17.494,28.161,54.615,28.161ZM162.992,383.288c12.374,0,18.774,2.56,18.774,8.107,0,5.973-6.4,8.107-18.774,8.107-11.947,0-18.347-2.133-18.347-8.107,0-5.547,6.4-8.107,18.347-8.107Z"/>
    <polygon class="cls-1" points="38.401 383.715 67.415 383.715 67.415 418.702 105.817 418.702 105.817 364.514 0 364.514 0 418.702 38.401 418.702 38.401 383.715"/>
    <path class="cls-1" d="M38.401,474.171h34.134v6.4h38.401v-24.321h-5.12v-33.708H10.24c0,25.601-2.56,33.708-10.24,33.708v24.321h38.401v-6.4ZM42.241,440.463h25.601v15.787h-28.161c1.707-3.413,2.56-10.24,2.56-15.787Z"/>
  </g>
  <path class="cls-1" d="M308.597,66.069c0,172.557-6.244,279.113-39.185,347.936-16.363,34.189-38.995,58.325-71.222,75.959-30.637,16.763-70.594,27.879-125.655,34.957v5.043c56.03-7.157,96.735-18.477,128.055-35.614,33.192-18.161,56.494-43.005,73.332-78.187,33.353-69.683,39.675-176.801,39.675-350.094h-5Z"/>
</svg>