<?xml version="1.0" encoding="UTF-8"?>
<svg id="Layer_1" data-name="Layer 1" xmlns="http://www.w3.org/2000/svg" viewBox="0 0 404.311 451.832">
  <defs>
    <style>
      .cls-1 {
        fill: none;
      }

      .cls-1, .cls-2 {
        stroke: #ff6a69;
        stroke-miterlimit: 10;
      }

      .cls-2 {
        fill: rgba(230, 228, 228, .72);
      }
    </style>
  </defs>
  <g>
    <polygon class="cls-2" points="106.863 230.575 1.829 332.827 121.406 450.285 402.338 315.391 282.762 197.933 106.863 230.575"/>
    <line class="cls-1" x1="375.396" y1="295.603" x2="103.595" y2="426.113"/>
    <line class="cls-1" x1="17.448" y1="341.492" x2="289.249" y2="210.982"/>
    <g>
      <line class="cls-1" x1="128.305" y1="292.563" x2="208.583" y2="371.419"/>
      <line class="cls-1" x1="184.273" y1="265.689" x2="264.551" y2="344.545"/>
      <line class="cls-1" x1="240.241" y1="238.815" x2="320.519" y2="317.671"/>
      <line class="cls-1" x1="72.338" y1="319.436" x2="152.616" y2="398.293"/>
    </g>
  </g>
  <g>
    <polygon class="cls-2" points="106.863 181.463 1.829 283.714 121.406 401.173 402.338 266.279 282.762 148.82 106.863 181.463"/>
    <line class="cls-1" x1="375.396" y1="246.491" x2="103.595" y2="377"/>
    <line class="cls-1" x1="17.448" y1="292.379" x2="289.249" y2="161.87"/>
    <g>
      <line class="cls-1" x1="128.305" y1="243.45" x2="208.583" y2="322.306"/>
      <line class="cls-1" x1="184.273" y1="216.576" x2="264.551" y2="295.432"/>
      <line class="cls-1" x1="240.241" y1="189.703" x2="320.519" y2="268.559"/>
      <line class="cls-1" x1="72.338" y1="270.324" x2="152.616" y2="349.18"/>
    </g>
  </g>
  <g>
    <polygon class="cls-2" points="106.863 132.35 1.829 234.602 121.406 352.06 402.338 217.166 282.762 99.708 106.863 132.35"/>
    <line class="cls-1" x1="375.396" y1="197.378" x2="103.595" y2="327.888"/>
    <line class="cls-1" x1="17.448" y1="243.267" x2="289.249" y2="112.757"/>
    <g>
      <line class="cls-1" x1="128.305" y1="194.338" x2="208.583" y2="273.194"/>
      <line class="cls-1" x1="184.273" y1="167.464" x2="264.551" y2="246.32"/>
      <line class="cls-1" x1="240.241" y1="140.59" x2="320.519" y2="219.446"/>
      <line class="cls-1" x1="72.338" y1="221.211" x2="152.616" y2="300.067"/>
    </g>
  </g>
  <g>
    <polygon class="cls-2" points="106.863 83.238 1.829 185.489 121.406 302.948 402.338 168.054 282.762 50.595 106.863 83.238"/>
    <line class="cls-1" x1="375.396" y1="148.266" x2="103.595" y2="278.775"/>
    <line class="cls-1" x1="17.448" y1="194.154" x2="289.249" y2="63.645"/>
    <g>
      <line class="cls-1" x1="128.305" y1="145.225" x2="208.583" y2="224.081"/>
      <line class="cls-1" x1="184.273" y1="118.351" x2="264.551" y2="197.207"/>
      <line class="cls-1" x1="240.241" y1="91.478" x2="320.519" y2="170.334"/>
      <line class="cls-1" x1="72.338" y1="172.099" x2="152.616" y2="250.955"/>
    </g>
  </g>
  <g>
    <polygon class="cls-2" points="106.863 34.125 1.829 136.377 121.406 253.835 402.338 118.941 282.762 1.483 106.863 34.125"/>
    <line class="cls-1" x1="375.396" y1="99.153" x2="103.595" y2="229.663"/>
    <line class="cls-1" x1="17.448" y1="145.042" x2="289.249" y2="14.532"/>
    <g>
      <line class="cls-1" x1="128.305" y1="96.113" x2="208.583" y2="174.969"/>
      <line class="cls-1" x1="184.273" y1="69.239" x2="264.551" y2="148.095"/>
      <line class="cls-1" x1="240.241" y1="42.365" x2="320.519" y2="121.221"/>
      <line class="cls-1" x1="72.338" y1="122.986" x2="152.616" y2="201.842"/>
    </g>
  </g>
</svg>